<svg width="75" height="75" viewBox="0 0 75 75" fill="none" xmlns="http://www.w3.org/2000/svg">
<mask id="path-1-inside-1_1_139" fill="white">
<path fill-rule="evenodd" clip-rule="evenodd" d="M28.4328 73.8804C48.5467 78.8874 68.8814 66.6276 73.8853 46.5506C78.877 26.4613 66.6369 6.06523 46.5108 1.1196C26.446 -3.88738 6.12358 8.37236 1.11964 28.4494C-3.8843 48.5264 8.35573 68.8611 28.4328 73.8804ZM46.924 23.2327C52.1323 25 55.9313 27.6141 55.2573 32.6215C54.7426 36.2665 52.7573 38.0461 50.0122 38.672C53.7622 40.5989 55.6372 43.5198 53.9215 48.6377C51.7892 55.0564 46.5318 55.6333 39.4975 54.3814L37.8799 61.2174L33.7622 60.2233L35.3799 53.4978C34.3382 53.24 33.2475 52.97 32.0956 52.6632L30.4779 59.4379L26.3603 58.4438L27.9779 51.6077C27.4118 51.4436 26.8231 51.3022 26.2254 51.1586C25.8398 51.066 25.4505 50.9724 25.0612 50.8713L19.6936 49.6195L21.6421 44.8699C21.6421 44.8699 24.7181 45.6553 24.6691 45.6063C25.8088 45.864 26.3358 45.1276 26.5441 44.6121L29.0441 33.8119C29.1237 33.8365 29.1881 33.8488 29.2524 33.861C29.3168 33.8733 29.3811 33.8856 29.4608 33.9101C29.3577 33.8387 29.2598 33.8134 29.1736 33.7912C29.1266 33.7791 29.083 33.7679 29.0441 33.7506L30.8701 26.0309C30.9313 25.1963 30.6127 24.104 28.946 23.6868C29.0563 23.6254 25.9804 22.9504 25.9804 22.9504L27.022 18.5689L32.696 19.9312C33.1372 20.0356 33.5815 20.1276 34.0257 20.2197C34.4699 20.3117 34.9142 20.4037 35.3554 20.5081L36.973 13.7334L41.1397 14.7275L39.571 21.3549C40.6617 21.5758 41.7647 21.8335 42.8554 22.0913L44.424 15.4639L48.5416 16.458L46.924 23.2327ZM34.106 47.8758C37.4167 48.7261 44.8825 50.6437 45.9926 45.9131C47.1099 41.1193 40.111 39.6102 36.5992 38.853C36.182 38.763 35.814 38.6837 35.5147 38.6107L33.3823 47.6926C33.5919 47.7437 33.835 47.8062 34.106 47.8758ZM37.0716 34.594C39.833 35.308 46.1186 36.9332 47.1323 32.6215C48.1606 28.2939 42.2945 27.0373 39.3933 26.4158C39.0445 26.3411 38.7386 26.2756 38.4926 26.215L36.5073 34.4501C36.6725 34.4908 36.8619 34.5398 37.0716 34.594Z"/>
</mask>
<path fill-rule="evenodd" clip-rule="evenodd" d="M28.4328 73.8804C48.5467 78.8874 68.8814 66.6276 73.8853 46.5506C78.877 26.4613 66.6369 6.06523 46.5108 1.1196C26.446 -3.88738 6.12358 8.37236 1.11964 28.4494C-3.8843 48.5264 8.35573 68.8611 28.4328 73.8804ZM46.924 23.2327C52.1323 25 55.9313 27.6141 55.2573 32.6215C54.7426 36.2665 52.7573 38.0461 50.0122 38.672C53.7622 40.5989 55.6372 43.5198 53.9215 48.6377C51.7892 55.0564 46.5318 55.6333 39.4975 54.3814L37.8799 61.2174L33.7622 60.2233L35.3799 53.4978C34.3382 53.24 33.2475 52.97 32.0956 52.6632L30.4779 59.4379L26.3603 58.4438L27.9779 51.6077C27.4118 51.4436 26.8231 51.3022 26.2254 51.1586C25.8398 51.066 25.4505 50.9724 25.0612 50.8713L19.6936 49.6195L21.6421 44.8699C21.6421 44.8699 24.7181 45.6553 24.6691 45.6063C25.8088 45.864 26.3358 45.1276 26.5441 44.6121L29.0441 33.8119C29.1237 33.8365 29.1881 33.8488 29.2524 33.861C29.3168 33.8733 29.3811 33.8856 29.4608 33.9101C29.3577 33.8387 29.2598 33.8134 29.1736 33.7912C29.1266 33.7791 29.083 33.7679 29.0441 33.7506L30.8701 26.0309C30.9313 25.1963 30.6127 24.104 28.946 23.6868C29.0563 23.6254 25.9804 22.9504 25.9804 22.9504L27.022 18.5689L32.696 19.9312C33.1372 20.0356 33.5815 20.1276 34.0257 20.2197C34.4699 20.3117 34.9142 20.4037 35.3554 20.5081L36.973 13.7334L41.1397 14.7275L39.571 21.3549C40.6617 21.5758 41.7647 21.8335 42.8554 22.0913L44.424 15.4639L48.5416 16.458L46.924 23.2327ZM34.106 47.8758C37.4167 48.7261 44.8825 50.6437 45.9926 45.9131C47.1099 41.1193 40.111 39.6102 36.5992 38.853C36.182 38.763 35.814 38.6837 35.5147 38.6107L33.3823 47.6926C33.5919 47.7437 33.835 47.8062 34.106 47.8758ZM37.0716 34.594C39.833 35.308 46.1186 36.9332 47.1323 32.6215C48.1606 28.2939 42.2945 27.0373 39.3933 26.4158C39.0445 26.3411 38.7386 26.2756 38.4926 26.215L36.5073 34.4501C36.6725 34.4908 36.8619 34.5398 37.0716 34.594Z" fill="#FEC34A"/>
<path d="M73.8853 46.5506L75.8259 47.0343L75.8263 47.0329L73.8853 46.5506ZM28.4328 73.8804L27.9478 75.8207L27.9497 75.8212L28.4328 73.8804ZM46.5108 1.1196L46.0266 3.06011L46.0335 3.06182L46.5108 1.1196ZM1.11964 28.4494L3.06027 28.9331L1.11964 28.4494ZM55.2573 32.6215L57.2377 32.9011L57.2394 32.8883L55.2573 32.6215ZM46.924 23.2327L44.9787 22.7682C44.7388 23.7727 45.3033 24.7947 46.2813 25.1266L46.924 23.2327ZM50.0122 38.672L49.5676 36.7221C48.7481 36.9089 48.1329 37.5883 48.0279 38.4222C47.9229 39.2562 48.3505 40.0668 49.0982 40.4509L50.0122 38.672ZM53.9215 48.6377L52.0252 48.002L52.0235 48.0071L53.9215 48.6377ZM39.4975 54.3814L39.8479 52.4123C38.8034 52.2265 37.7956 52.8885 37.5513 53.9209L39.4975 54.3814ZM37.8799 61.2174L37.4105 63.1616C37.9276 63.2864 38.4732 63.2001 38.9266 62.9217C39.3799 62.6433 39.7036 62.1957 39.8261 61.678L37.8799 61.2174ZM33.7622 60.2233L31.8177 59.7556C31.5595 60.8289 32.2198 61.9084 33.2929 62.1675L33.7622 60.2233ZM35.3799 53.4978L37.3244 53.9655C37.5815 52.8965 36.9275 51.8204 35.8602 51.5563L35.3799 53.4978ZM32.0956 52.6632L32.6103 50.7306C32.0891 50.5917 31.5338 50.6693 31.0706 50.9458C30.6074 51.2222 30.2755 51.674 30.1502 52.1987L32.0956 52.6632ZM30.4779 59.4379L30.0085 61.382C30.525 61.5067 31.0699 61.4208 31.5229 61.1432C31.9759 60.8656 32.2998 60.4191 32.4232 59.9024L30.4779 59.4379ZM26.3603 58.4438L24.414 57.9832C24.1605 59.0546 24.8206 60.1295 25.8909 60.3879L26.3603 58.4438ZM27.9779 51.6077L29.9242 52.0683C30.1696 51.0311 29.5585 49.9836 28.5348 49.6868L27.9779 51.6077ZM26.2254 51.1586L25.7582 53.1033L25.7583 53.1033L26.2254 51.1586ZM25.0612 50.8713L25.5639 48.9355C25.5478 48.9314 25.5317 48.9274 25.5155 48.9236L25.0612 50.8713ZM19.6936 49.6195L17.8433 48.8604C17.6208 49.4027 17.6474 50.0153 17.9161 50.5363C18.1848 51.0572 18.6685 51.4341 19.2394 51.5672L19.6936 49.6195ZM21.6421 44.8699L22.137 42.9321C21.1707 42.6853 20.1703 43.1881 19.7918 44.1108L21.6421 44.8699ZM24.6691 45.6063L25.1102 43.6555C24.2418 43.4591 23.3482 43.8604 22.918 44.6399C22.4879 45.4194 22.6248 46.3894 23.2538 47.0194L24.6691 45.6063ZM26.5441 44.6121L28.3984 45.3616C28.4375 45.2647 28.469 45.1649 28.4926 45.0632L26.5441 44.6121ZM29.0441 33.8119L29.633 31.9006C29.1024 31.7371 28.5277 31.8016 28.0465 32.0785C27.5653 32.3555 27.2208 32.82 27.0956 33.3609L29.0441 33.8119ZM29.4608 33.9101L28.8718 35.8214C29.8144 36.1119 30.8281 35.6718 31.2594 34.7847C31.6907 33.8976 31.4109 32.8285 30.6003 32.2665L29.4608 33.9101ZM29.1736 33.7912L28.6746 35.728L28.6747 35.728L29.1736 33.7912ZM29.0441 33.7506L27.0978 33.2902C26.8765 34.2259 27.3523 35.1867 28.2308 35.5777L29.0441 33.7506ZM30.8701 26.0309L32.8164 26.4913C32.8408 26.3881 32.8569 26.2831 32.8647 26.1773L30.8701 26.0309ZM28.946 23.6868L27.9737 21.9391C27.2565 22.3381 26.8559 23.1347 26.9632 23.9484C27.0706 24.7621 27.6642 25.4276 28.4603 25.6269L28.946 23.6868ZM25.9804 22.9504L24.0346 22.4878C23.9105 23.0097 24.0013 23.5596 24.2866 24.0139C24.5718 24.4682 25.0277 24.7889 25.5517 24.9039L25.9804 22.9504ZM27.022 18.5689L27.4889 16.6242C26.9724 16.5002 26.4278 16.5868 25.9752 16.8648C25.5225 17.1429 25.1991 17.5895 25.0763 18.1063L27.022 18.5689ZM32.696 19.9312L32.2291 21.876L32.2358 21.8776L32.696 19.9312ZM34.0257 20.2197L33.6199 22.1781L34.0257 20.2197ZM35.3554 20.5081L34.8951 22.4544C35.9684 22.7082 37.0445 22.0453 37.3007 20.9726L35.3554 20.5081ZM36.973 13.7334L37.4371 11.788C36.3629 11.5317 35.2842 12.1947 35.0277 13.2689L36.973 13.7334ZM41.1397 14.7275L43.0859 15.1882C43.34 14.1146 42.6769 13.0381 41.6038 12.7821L41.1397 14.7275ZM39.571 21.3549L37.6248 20.8943C37.5 21.4214 37.5944 21.9766 37.8864 22.4329C38.1785 22.8892 38.6431 23.2076 39.174 23.3151L39.571 21.3549ZM42.8554 22.0913L42.3954 24.0377C43.4701 24.2916 44.5472 23.6265 44.8016 22.5519L42.8554 22.0913ZM44.424 15.4639L44.8933 13.5197C44.3762 13.3949 43.8307 13.4812 43.3773 13.7596C42.924 14.038 42.6003 14.4856 42.4777 15.0032L44.424 15.4639ZM48.5416 16.458L50.4869 16.9225C50.743 15.85 50.0828 14.7726 49.011 14.5139L48.5416 16.458ZM45.9926 45.9131L47.9397 46.37L47.9404 46.367L45.9926 45.9131ZM34.106 47.8758L33.6085 49.8129L33.6085 49.8129L34.106 47.8758ZM36.5992 38.853L37.0208 36.8979H37.0208L36.5992 38.853ZM35.5147 38.6107L35.9885 36.6676C35.4702 36.5412 34.923 36.6271 34.4684 36.9062C34.0138 37.1852 33.6895 37.6342 33.5676 38.1535L35.5147 38.6107ZM33.3823 47.6926L31.4353 47.2355C31.1843 48.3044 31.842 49.3758 32.9087 49.6358L33.3823 47.6926ZM47.1323 32.6215L45.1865 32.1591L45.1854 32.1637L47.1323 32.6215ZM37.0716 34.594L37.5722 32.6577H37.5722L37.0716 34.594ZM39.3933 26.4158L38.9744 28.3715H38.9744L39.3933 26.4158ZM38.4926 26.215L38.971 24.273C38.4543 24.1458 37.9082 24.2296 37.4535 24.5061C36.9988 24.7826 36.673 25.2289 36.5483 25.7463L38.4926 26.215ZM36.5073 34.4501L34.563 33.9814C34.3051 35.0514 34.9601 36.1287 36.0288 36.392L36.5073 34.4501ZM71.9447 46.0669C67.2074 65.074 47.9565 76.6794 28.9159 71.9396L27.9497 75.8212C49.1369 81.0953 70.5553 68.1812 75.8259 47.0343L71.9447 46.0669ZM46.0335 3.06182C65.0799 7.74211 76.6704 27.0478 71.9443 46.0683L75.8263 47.0329C81.0835 25.8748 68.194 4.38834 46.9881 -0.822616L46.0335 3.06182ZM3.06027 28.9331C7.79815 9.92354 27.0381 -1.67827 46.0266 3.0601L46.995 -0.820891C25.8538 -6.09648 4.44901 6.82119 -0.820994 27.9657L3.06027 28.9331ZM28.9179 71.9401C9.90933 67.188 -1.67605 47.9363 3.06027 28.9331L-0.820994 27.9657C-6.09256 49.1165 6.80213 70.5343 27.9478 75.8207L28.9179 71.9401ZM57.2394 32.8883C57.6637 29.7363 56.6466 27.213 54.7031 25.2903C52.8613 23.4681 50.263 22.2537 47.5666 21.3387L46.2813 25.1266C48.7933 25.979 50.6987 26.9553 51.8899 28.1338C52.9795 29.2118 53.5249 30.4992 53.2752 32.3547L57.2394 32.8883ZM50.4568 40.622C52.1327 40.2399 53.7061 39.4725 54.9405 38.1358C56.1755 36.7983 56.936 35.0373 57.2377 32.9011L53.2769 32.3418C53.0639 33.8508 52.5744 34.802 52.0018 35.4221C51.4286 36.0429 50.6368 36.4783 49.5676 36.7221L50.4568 40.622ZM55.8178 49.2734C56.7809 46.4005 56.8309 43.8444 55.8411 41.6392C54.8631 39.4605 53.0236 37.9708 50.9263 36.8931L49.0982 40.4509C50.7508 41.3001 51.7238 42.2344 52.1919 43.2772C52.6482 44.2938 52.7778 45.757 52.0252 48.002L55.8178 49.2734ZM39.1471 56.3505C42.7286 56.9878 46.2103 57.2373 49.1593 56.2902C52.2929 55.2839 54.5751 53.0141 55.8195 49.2682L52.0235 48.0071C51.1356 50.68 49.7229 51.908 47.9362 52.4818C45.9648 53.1149 43.3007 53.0268 39.8479 52.4123L39.1471 56.3505ZM39.8261 61.678L41.4438 54.842L37.5513 53.9209L35.9336 60.7569L39.8261 61.678ZM33.2929 62.1675L37.4105 63.1616L38.3492 59.2733L34.2316 58.2792L33.2929 62.1675ZM33.4353 53.0301L31.8177 59.7556L35.7068 60.691L37.3244 53.9655L33.4353 53.0301ZM31.5808 54.5958C32.7524 54.9079 33.8595 55.1819 34.8995 55.4392L35.8602 51.5563C34.8169 51.2982 33.7427 51.0322 32.6103 50.7306L31.5808 54.5958ZM32.4232 59.9024L34.0409 53.1277L30.1502 52.1987L28.5326 58.9734L32.4232 59.9024ZM25.8909 60.3879L30.0085 61.382L30.9473 57.4937L26.8296 56.4996L25.8909 60.3879ZM26.0317 51.1472L24.414 57.9832L28.3065 58.9043L29.9242 52.0683L26.0317 51.1472ZM25.7583 53.1033C26.3645 53.2489 26.9073 53.3797 27.421 53.5286L28.5348 49.6868C27.9163 49.5075 27.2817 49.3554 26.6926 49.2139L25.7583 53.1033ZM24.5586 52.8072C24.9685 52.9136 25.3755 53.0113 25.7582 53.1033L26.6926 49.2139C26.3042 49.1206 25.9326 49.0313 25.5639 48.9355L24.5586 52.8072ZM19.2394 51.5672L24.607 52.8191L25.5155 48.9236L20.1479 47.6718L19.2394 51.5672ZM19.7918 44.1108L17.8433 48.8604L21.5439 50.3786L23.4925 45.629L19.7918 44.1108ZM23.2538 47.0194C23.1768 46.9423 23.0531 46.8062 22.9394 46.61C22.8266 46.4156 22.6769 46.0806 22.6699 45.6387C22.6623 45.1556 22.8289 44.7132 23.0967 44.3722C23.338 44.0651 23.6123 43.8998 23.7794 43.8167C24.0909 43.662 24.3644 43.6301 24.438 43.6216C24.5502 43.6086 24.6398 43.6081 24.6859 43.6086C24.78 43.6096 24.8521 43.6173 24.8769 43.6201C24.9099 43.6237 24.9351 43.6275 24.9477 43.6294C24.9863 43.6353 25.0017 43.6393 24.9665 43.6319C24.9124 43.6205 24.8161 43.5985 24.6782 43.5658C24.4085 43.5019 24.0378 43.4106 23.6579 43.3159C23.2798 43.2216 22.8995 43.1256 22.6132 43.0531C22.4702 43.0169 22.3509 42.9865 22.2675 42.9653C22.2258 42.9547 22.193 42.9464 22.1708 42.9407C22.1596 42.9378 22.1511 42.9357 22.1454 42.9342C22.1426 42.9335 22.1404 42.9329 22.139 42.9326C22.1383 42.9324 22.1378 42.9323 22.1374 42.9322C22.1373 42.9321 22.1371 42.9321 22.1371 42.9321C22.137 42.9321 22.137 42.9321 22.137 42.9321C22.137 42.9321 22.137 42.9321 21.6421 44.8699C21.1473 46.8077 21.1473 46.8077 21.1474 46.8077C21.1474 46.8077 21.1474 46.8077 21.1475 46.8077C21.1476 46.8078 21.1477 46.8078 21.1479 46.8079C21.1483 46.808 21.1489 46.8081 21.1497 46.8083C21.1512 46.8087 21.1535 46.8093 21.1565 46.81C21.1624 46.8116 21.1712 46.8138 21.1826 46.8167C21.2053 46.8225 21.2386 46.831 21.2809 46.8417C21.3655 46.8633 21.4862 46.8939 21.6308 46.9306C21.9197 47.0038 22.3053 47.1011 22.6901 47.197C23.073 47.2925 23.4622 47.3884 23.7554 47.458C23.899 47.492 24.035 47.5234 24.1397 47.5455C24.184 47.5549 24.2604 47.5707 24.3386 47.5827C24.3504 47.5846 24.4827 47.6066 24.6435 47.6083C24.6918 47.6089 24.7832 47.6083 24.8969 47.5951C24.972 47.5865 25.2466 47.5542 25.5588 47.3992C25.8832 47.238 26.6869 46.6852 26.6694 45.5758C26.6565 44.7529 26.1581 44.267 26.0843 44.1931L23.2538 47.0194ZM24.6898 43.8627C24.6838 43.8777 24.6803 43.881 24.6865 43.8722C24.6932 43.8626 24.7231 43.8223 24.7868 43.7764C24.8569 43.7259 24.9454 43.6855 25.0368 43.668C25.1257 43.6509 25.1592 43.6666 25.1102 43.6555L24.228 47.557C25.3237 47.8048 26.3329 47.5925 27.1249 47.0219C27.8403 46.5065 28.2133 45.8195 28.3984 45.3616L24.6898 43.8627ZM27.0956 33.3609L24.5956 44.1611L28.4926 45.0632L30.9926 34.263L27.0956 33.3609ZM29.6271 31.8965C29.6188 31.8949 29.6129 31.8937 29.6073 31.8927C29.602 31.8916 29.5983 31.8909 29.5956 31.8904C29.5903 31.8893 29.5902 31.8892 29.5931 31.8899C29.5963 31.8906 29.6021 31.892 29.6096 31.894C29.6172 31.8959 29.6251 31.8982 29.633 31.9006L28.4551 35.7233C28.6506 35.7835 28.8114 35.813 28.8777 35.8256L29.6271 31.8965ZM30.0497 31.9988C29.8542 31.9386 29.6934 31.9091 29.6271 31.8965L28.8777 35.8256C28.8861 35.8272 28.892 35.8283 28.8976 35.8294C28.9029 35.8304 28.9065 35.8312 28.9092 35.8317C28.9146 35.8328 28.9146 35.8328 28.9117 35.8322C28.9085 35.8315 28.9027 35.8301 28.8952 35.8281C28.8876 35.8261 28.8797 35.8239 28.8718 35.8214L30.0497 31.9988ZM28.6747 35.728C28.755 35.7487 28.5393 35.705 28.3212 35.5537L30.6003 32.2665C30.176 31.9724 29.7645 31.8782 29.6725 31.8545L28.6747 35.728ZM28.2308 35.5777C28.4507 35.6756 28.6646 35.7254 28.6746 35.728L29.6725 31.8545C29.6663 31.8529 29.6627 31.8519 29.6595 31.8511C29.6566 31.8504 29.6558 31.8501 29.6562 31.8503C29.6566 31.8503 29.6658 31.8528 29.6802 31.8571C29.707 31.8652 29.7731 31.8859 29.8574 31.9234L28.2308 35.5777ZM28.9238 25.5705L27.0978 33.2902L30.9904 34.2109L32.8164 26.4913L28.9238 25.5705ZM28.4603 25.6269C28.6926 25.685 28.809 25.7494 28.8552 25.7799C28.8968 25.8074 28.8942 25.8154 28.8811 25.7954C28.8555 25.7561 28.8842 25.765 28.8754 25.8844L32.8647 26.1773C32.9172 25.4622 32.8172 24.5077 32.2309 23.6093C31.6233 22.6782 30.6536 22.0525 29.4318 21.7466L28.4603 25.6269ZM25.9804 22.9504C25.5517 24.9039 25.5517 24.9039 25.5517 24.9039C25.5517 24.9039 25.5517 24.9039 25.5517 24.9039C25.5518 24.9039 25.5519 24.9039 25.552 24.904C25.5523 24.904 25.5528 24.9042 25.5535 24.9043C25.5548 24.9046 25.5569 24.905 25.5597 24.9057C25.5652 24.9069 25.5735 24.9087 25.5845 24.9111C25.6063 24.9159 25.6387 24.9231 25.6799 24.9322C25.7624 24.9505 25.8805 24.9767 26.0219 25.0084C26.3053 25.0719 26.68 25.1568 27.0496 25.2431C27.4238 25.3305 27.7752 25.4154 28.0195 25.4798C28.0792 25.4955 28.1277 25.5088 28.1655 25.5195C28.2057 25.531 28.2224 25.5364 28.2222 25.5363C28.2219 25.5362 28.2077 25.5316 28.1844 25.5227C28.1679 25.5164 28.1079 25.4933 28.0296 25.4538C27.9903 25.4339 27.9191 25.3963 27.8343 25.34C27.7678 25.2958 27.5913 25.1745 27.416 24.9659C27.2684 24.7901 26.844 24.2184 26.9718 23.3815C27.1061 22.5025 27.7282 22.0756 27.9737 21.9391L29.9184 25.4345C30.1673 25.296 30.7914 24.8669 30.926 23.9854C31.0542 23.146 30.6287 22.5714 30.4784 22.3926C30.1858 22.0443 29.839 21.8864 29.8322 21.883C29.6727 21.8024 29.5226 21.7533 29.4784 21.7387C29.3426 21.6938 29.1813 21.6494 29.0389 21.6119C28.7374 21.5324 28.3405 21.437 27.9595 21.348C27.5739 21.2579 27.1865 21.1702 26.8966 21.1052C26.7514 21.0727 26.63 21.0457 26.5447 21.0268C26.5021 21.0174 26.4684 21.0099 26.4453 21.0048C26.4337 21.0023 26.4248 21.0003 26.4187 20.999C26.4157 20.9983 26.4133 20.9978 26.4117 20.9974C26.4109 20.9973 26.4103 20.9971 26.4098 20.997C26.4096 20.997 26.4094 20.997 26.4093 20.9969C26.4092 20.9969 26.4092 20.9969 26.4091 20.9969C26.4091 20.9969 26.4091 20.9969 25.9804 22.9504ZM25.0763 18.1063L24.0346 22.4878L27.9261 23.413L28.9678 19.0315L25.0763 18.1063ZM33.163 17.9865L27.4889 16.6242L26.5551 20.5137L32.2291 21.876L33.163 17.9865ZM34.4315 18.2612C33.9827 18.1683 33.5658 18.0817 33.1563 17.9849L32.2358 21.8776C32.7087 21.9894 33.1802 22.087 33.6199 22.1781L34.4315 18.2612ZM35.8156 18.5617C35.3427 18.4499 34.8711 18.3523 34.4315 18.2612L33.6199 22.1781C34.0687 22.271 34.4856 22.3576 34.8951 22.4544L35.8156 18.5617ZM35.0277 13.2689L33.41 20.0436L37.3007 20.9726L38.9183 14.1979L35.0277 13.2689ZM41.6038 12.7821L37.4371 11.788L36.5089 15.6788L40.6755 16.6729L41.6038 12.7821ZM41.5173 21.8156L43.0859 15.1882L39.1934 14.2669L37.6248 20.8943L41.5173 21.8156ZM43.3153 20.1449C42.2254 19.8873 41.0939 19.6227 39.9681 19.3947L39.174 23.3151C40.2295 23.5289 41.3039 23.7798 42.3954 24.0377L43.3153 20.1449ZM42.4777 15.0032L40.9091 21.6306L44.8016 22.5519L46.3702 15.9245L42.4777 15.0032ZM49.011 14.5139L44.8933 13.5197L43.9546 17.408L48.0723 18.4021L49.011 14.5139ZM48.8693 23.6972L50.4869 16.9225L46.5963 15.9935L44.9787 22.7682L48.8693 23.6972ZM44.0455 45.4562C43.9082 46.0411 43.6287 46.3428 43.2096 46.5607C42.7035 46.824 41.9263 46.9848 40.8699 46.9873C38.7487 46.9922 36.3023 46.375 34.6035 45.9387L33.6085 49.8129C35.2204 50.2269 38.1622 50.9936 40.8792 50.9873C42.2418 50.9841 43.7461 50.7905 45.0555 50.1094C46.4519 49.383 47.5219 48.1504 47.9397 46.37L44.0455 45.4562ZM36.1777 40.808C37.9866 41.1981 40.3384 41.7182 42.1052 42.6418C42.9778 43.0979 43.5337 43.5669 43.8281 44.0066C44.0734 44.3731 44.1987 44.7989 44.0448 45.4591L47.9404 46.367C48.3451 44.6304 48.0146 43.0699 47.152 41.7815C46.3386 40.5664 45.1348 39.7119 43.9583 39.0969C41.6271 37.8782 38.7236 37.2651 37.0208 36.8979L36.1777 40.808ZM35.0409 40.5537C35.3719 40.6345 35.7694 40.72 36.1777 40.808L37.0208 36.8979C36.5946 36.806 36.256 36.7328 35.9885 36.6676L35.0409 40.5537ZM35.3294 48.1498L37.4617 39.0678L33.5676 38.1535L31.4353 47.2355L35.3294 48.1498ZM34.6035 45.9387C34.3362 45.87 34.0799 45.8041 33.8559 45.7495L32.9087 49.6358C33.1038 49.6833 33.3338 49.7424 33.6085 49.8129L34.6035 45.9387ZM45.1854 32.1637C45.0595 32.6993 44.8238 32.944 44.5287 33.1126C44.1574 33.3248 43.5648 33.4748 42.7149 33.4929C40.9933 33.5294 38.9988 33.0266 37.5722 32.6577L36.5709 36.5304C37.9058 36.8755 40.4348 37.5422 42.7998 37.492C43.9931 37.4666 45.3346 37.2591 46.5132 36.5856C47.7682 35.8685 48.6983 34.6995 49.0792 33.0792L45.1854 32.1637ZM38.9744 28.3715C40.4809 28.6942 42.3751 29.1149 43.7746 29.8824C44.4573 30.2569 44.858 30.6293 45.0592 30.9579C45.2209 31.2219 45.3273 31.5667 45.1865 32.1591L49.0781 33.0838C49.4515 31.5125 49.2103 30.0773 48.4706 28.8692C47.7704 27.7257 46.7161 26.9336 45.6982 26.3753C43.6964 25.2774 41.2069 24.759 39.8122 24.4602L38.9744 28.3715ZM38.0142 28.1569C38.2963 28.2264 38.6361 28.299 38.9744 28.3715L39.8122 24.4602C39.4529 24.3832 39.1808 24.3247 38.971 24.273L38.0142 28.1569ZM38.4516 34.9189L40.4369 26.6837L36.5483 25.7463L34.563 33.9814L38.4516 34.9189ZM37.5722 32.6577C37.3658 32.6043 37.1644 32.5522 36.9859 32.5082L36.0288 36.392C36.1806 36.4295 36.358 36.4753 36.5709 36.5304L37.5722 32.6577Z" fill="black" mask="url(#path-1-inside-1_1_139)"/>
</svg>
